<svg xmlns="http://www.w3.org/2000/svg" width="25.999" height="25.83" viewBox="0 0 25.999 25.83">
  <g id="Group_971" data-name="Group 971" transform="translate(0 -1.666)">
    <g id="Group_1055" data-name="Group 1055" transform="translate(0 1.666)">
      <g id="Group_1054" data-name="Group 1054" transform="translate(0 0)">
        <path id="Path_779" data-name="Path 779" d="M25.68,9.685l-8.594-5.53a.369.369,0,1,0-.4.621l8.469,5.449H23.18l-9.64-6.2a1,1,0,0,0-1.081,0l-9.64,6.2H.845L13,2.4l1.721,1.107a.369.369,0,1,0,.4-.621L13.4,1.783a.739.739,0,0,0-.8,0L.32,9.685A.695.695,0,0,0,.7,10.964H2.558v2.388a.612.612,0,0,0,.485.6v.65a.612.612,0,0,0,.611.611h.051v4.525a.369.369,0,0,0,.739,0V14.842a.369.369,0,0,0-.369-.369H3.783v-.51H6.4v.51H6.105a.369.369,0,0,0-.369.369V23a.369.369,0,0,0,.369.369H6.4v.554H3.783v-.554h.293A.369.369,0,0,0,4.445,23v-.944a.369.369,0,1,0-.739,0v.575H3.655a.612.612,0,0,0-.611.611v.65a.612.612,0,0,0-.485.6v.746H1.25a.741.741,0,0,0-.74.74v.777a.741.741,0,0,0,.74.74h23.5a.741.741,0,0,0,.74-.74v-.777a.741.741,0,0,0-.74-.74H23.441v-.746a.612.612,0,0,0-.485-.6v-.65a.612.612,0,0,0-.611-.611h-.051V15.212h.051a.612.612,0,0,0,.611-.611v-.65a.612.612,0,0,0,.485-.6V10.964H25.3a.695.695,0,0,0,.376-1.279ZM12.859,4.644a.261.261,0,0,1,.281,0l8.675,5.581H4.184ZM3.3,10.964H22.7v.9H3.3ZM15.046,23.895v-.65a.612.612,0,0,0-.611-.611h-.051V15.212h.051a.612.612,0,0,0,.611-.611v-.65a.612.612,0,0,0,.485-.6v-.746h2.846v.746a.612.612,0,0,0,.485.6v.65a.612.612,0,0,0,.611.611h.051v7.421h-.051a.612.612,0,0,0-.611.611v.65a.612.612,0,0,0-.485.6v.746H15.532v-.746A.612.612,0,0,0,15.046,23.895Zm-7.91,0v-.65a.612.612,0,0,0-.611-.611H6.475V15.212h.051a.612.612,0,0,0,.611-.611v-.65a.612.612,0,0,0,.485-.6v-.746h2.846v.746a.612.612,0,0,0,.485.6v.65a.612.612,0,0,0,.611.611h.051v7.421h-.051a.612.612,0,0,0-.611.611v.65a.612.612,0,0,0-.485.6v.746H7.622v-.746A.612.612,0,0,0,7.137,23.895Zm6.878-.523h.293v.554H11.692v-.554h.293A.369.369,0,0,0,12.354,23v-8.16a.369.369,0,0,0-.369-.369h-.293v-.51h2.616v.51h-.293a.369.369,0,0,0-.369.369V23A.369.369,0,0,0,14.015,23.372ZM11.323,13.225h-.116v-.618h3.587v.618H11.323Zm-.116,11.422a.369.369,0,0,0,.114.018h3.354a.369.369,0,0,0,.118-.02v.593H11.207ZM3.413,13.225H3.3v-.618H6.884v.618H3.413ZM3.3,24.646a.368.368,0,0,0,.116.019H6.768a.368.368,0,0,0,.116-.019v.593H3.3v-.593Zm21.454,1.333v.779h0l-23.5,0,0-.779Zm-2.166-1.314a.369.369,0,0,0,.117-.019v.593H19.116v-.592a.368.368,0,0,0,.115.018ZM19.894,14.473H19.6v-.51h2.616v.51h-.293a.369.369,0,0,0-.369.369V23a.369.369,0,0,0,.369.369h.293v.554H19.6v-.554h.293A.369.369,0,0,0,20.264,23v-8.16A.369.369,0,0,0,19.894,14.473ZM22.7,13.225H19.116v-.618H22.7v.618Z" transform="translate(0 -1.666)" fill="#fff"/>
      </g>
    </g>
    <g id="Group_1057" data-name="Group 1057" transform="translate(11.64 5.369)">
      <g id="Group_1056" data-name="Group 1056">
        <path id="Path_780" data-name="Path 780" d="M230.728,76.536V75.383c.4.028.545.21.682.21.17,0,.25-.216.25-.324,0-.278-.545-.4-.932-.409v-.153c0-.068-.085-.131-.17-.131a.15.15,0,0,0-.165.131v.165a1.054,1.054,0,0,0-1.079,1.056c0,.727.568.931,1.079,1.113v1.335c-.579-.045-.733-.443-.92-.443-.142,0-.261.187-.261.324,0,.278.477.659,1.181.67h0V79.1a.15.15,0,0,0,.165.131c.085,0,.17-.063.17-.131V78.91a1.1,1.1,0,0,0,1.034-1.17C231.762,76.967,231.223,76.717,230.728,76.536Zm-.3-.108c-.3-.114-.545-.233-.545-.557,0-.3.227-.437.545-.477Zm.267,1.937v-1.2a.664.664,0,0,1,.5.636A.54.54,0,0,1,230.694,78.364Z" transform="translate(-229.212 -74.576)" fill="#fff"/>
      </g>
    </g>
  </g>
</svg>
