<svg id="Group_972" data-name="Group 972" xmlns="http://www.w3.org/2000/svg" width="27.94" height="27.94" viewBox="0 0 27.94 27.94">
  <path id="Path_781" data-name="Path 781" d="M23.849,4.092A13.97,13.97,0,0,0,4.092,23.849,13.97,13.97,0,0,0,23.849,4.092ZM13.97,26.3A12.333,12.333,0,1,1,26.3,13.97,12.347,12.347,0,0,1,13.97,26.3Z" fill="#fff"/>
  <path id="Path_782" data-name="Path 782" d="M68.805,58A10.805,10.805,0,1,0,79.61,68.805,10.817,10.817,0,0,0,68.805,58Zm0,19.973a9.168,9.168,0,1,1,9.168-9.168A9.178,9.178,0,0,1,68.805,77.973Z" transform="translate(-54.835 -54.835)" fill="#fff"/>
  <path id="Path_783" data-name="Path 783" d="M182.976,124.879a3.183,3.183,0,0,0-2.374-5.3h-.4V118h-1.637v1.582h-3.6v1.637H176.3v8.624h-1.337v1.637h3.6v1.582H180.2V131.48h.837a3.583,3.583,0,0,0,2.533-6.119,3.632,3.632,0,0,0-.6-.481Zm-5.041-3.661H180.6a1.545,1.545,0,0,1,.025,3.089h-2.692v-3.089Zm3.1,8.624h-3.1v-3.9h3.1a1.949,1.949,0,0,1,0,3.9Z" transform="translate(-165.413 -111.561)" fill="#fff"/>
</svg>
