<svg xmlns="http://www.w3.org/2000/svg" width="28.896" height="21" viewBox="0 0 28.896 21">
  <g id="Group_969" data-name="Group 969" transform="translate(0 -69.408)">
    <g id="Group_1018" data-name="Group 1018" transform="translate(2.799 78.286)">
      <g id="Group_1017" data-name="Group 1017" transform="translate(0 0)">
        <rect id="Rectangle_490" data-name="Rectangle 490" width="4.659" height="0.933" fill="#5c5c5c"/>
      </g>
    </g>
    <g id="Group_1020" data-name="Group 1020" transform="translate(2.799 81.085)">
      <g id="Group_1019" data-name="Group 1019">
        <rect id="Rectangle_491" data-name="Rectangle 491" width="6.991" height="0.933" fill="#5c5c5c"/>
      </g>
    </g>
    <g id="Group_1024" data-name="Group 1024" transform="translate(2.799 86.677)">
      <g id="Group_1023" data-name="Group 1023">
        <rect id="Rectangle_493" data-name="Rectangle 493" width="2.799" height="0.933" fill="#5c5c5c"/>
      </g>
    </g>
    <g id="Group_1026" data-name="Group 1026" transform="translate(7.457 86.677)">
      <g id="Group_1025" data-name="Group 1025">
        <rect id="Rectangle_494" data-name="Rectangle 494" width="2.799" height="0.933" fill="#5c5c5c"/>
      </g>
    </g>
    <g id="Group_1028" data-name="Group 1028" transform="translate(12.122 86.677)">
      <g id="Group_1027" data-name="Group 1027">
        <rect id="Rectangle_495" data-name="Rectangle 495" width="2.799" height="0.933" fill="#5c5c5c"/>
      </g>
    </g>
    <g id="Group_1030" data-name="Group 1030" transform="translate(15.381 77.82)">
      <g id="Group_1029" data-name="Group 1029" transform="translate(0 0)">
        <path id="Path_768" data-name="Path 768" d="M274.131,217.288a1.828,1.828,0,0,0-.927.256,1.866,1.866,0,1,0,0,3.22,1.828,1.828,0,0,0,.927.256,1.866,1.866,0,1,0,0-3.732Zm-1.627,2.765a.866.866,0,0,1-.239.034.933.933,0,0,1,0-1.866,1.1,1.1,0,0,1,.239.034,1.81,1.81,0,0,0,0,1.8Zm1.627.034a.933.933,0,1,1,.933-.933A.937.937,0,0,1,274.131,220.087Z" transform="translate(-270.4 -217.288)" fill="#5c5c5c"/>
      </g>
    </g>
    <g id="Group_1032" data-name="Group 1032" transform="translate(0 69.408)">
      <g id="Group_1031" data-name="Group 1031">
        <path id="Path_769" data-name="Path 769" d="M27.924,75.664,8.367,69.487a1.335,1.335,0,0,0-1.752.91l-1.61,5.091H1.4a1.406,1.406,0,0,0-1.4,1.4V89.009a1.4,1.4,0,0,0,1.4,1.4H21.911a1.39,1.39,0,0,0,1.166-.631,6.532,6.532,0,0,0,.774.176,1.386,1.386,0,0,0,1.331-.978l3.652-11.559A1.351,1.351,0,0,0,27.924,75.664ZM6.94,72.456l9.608,3.032H10.353L6.377,74.231ZM6.1,75.124l1.166.37H5.984Zm16.28,13.885h-.006a.469.469,0,0,1-.466.466H1.4a.469.469,0,0,1-.466-.466V76.887a.469.469,0,0,1,.466-.466H21.911a.469.469,0,0,1,.466.466V89.009Zm1.917-.313a.471.471,0,0,1-.586.3l-.4-.125V80.562l3.237,1.024Zm2.526-8L23.3,79.583V77.627l4.078,1.286Zm1.126-3.555-.279.887-4.386-1.382a1.4,1.4,0,0,0-1.371-1.149h-2.27L7.218,71.568l.279-.887a.468.468,0,0,1,.586-.3l19.556,6.172A.44.44,0,0,1,27.947,77.137Z" transform="translate(0 -69.408)" fill="#5c5c5c"/>
      </g>
    </g>
  </g>
</svg>
