<svg id="facebook" xmlns="http://www.w3.org/2000/svg" width="32.158" height="32.158" viewBox="0 0 32.158 32.158">
  <path id="Path_5" data-name="Path 5" d="M301.724,508.668q-5.415.883-10.869,1.626Q296.309,509.551,301.724,508.668Zm0,0" transform="translate(-278.608 -482.149)" fill="#fff"/>
  <path id="Path_6" data-name="Path 6" d="M304.516,507.793c-1.726.317-3.451.608-5.177.906C301.065,508.4,302.791,508.11,304.516,507.793Zm0,0" transform="translate(-283.47 -482.755)" fill="#fff"/>
  <path id="Path_7" data-name="Path 7" d="M290.35,510.34q-6.337.714-12.74,1.256Q284.006,511.061,290.35,510.34Zm0,0" transform="translate(-266.924 -480.992)" fill="#fff"/>
  <path id="Path_8" data-name="Path 8" d="M292.555,509.738c-2.03.271-4.073.522-6.109.76C288.482,510.26,290.525,510.009,292.555,509.738Zm0,0" transform="translate(-271.769 -481.408)" fill="#fff"/>
  <path id="Path_9" data-name="Path 9" d="M311.239,506.41c-1.521.324-3.048.648-4.575.959C308.191,507.058,309.718,506.734,311.239,506.41Zm0,0" transform="translate(-290.055 -483.713)" fill="#fff"/>
  <path id="Path_10" data-name="Path 10" d="M328.173,502.113c-1.23.35-2.459.681-3.689,1.025C325.714,502.794,326.944,502.463,328.173,502.113Zm0,0" transform="translate(-306.365 -486.689)" fill="#fff"/>
  <path id="Path_11" data-name="Path 11" d="M323.079,503.543c-1.335.35-2.678.707-4.02,1.045Q321.072,504.082,323.079,503.543Zm0,0" transform="translate(-301.443 -485.699)" fill="#fff"/>
  <path id="Path_12" data-name="Path 12" d="M316.338,505.254c-1.415.331-2.843.641-4.271.959C313.495,505.9,314.923,505.585,316.338,505.254Zm0,0" transform="translate(-294.985 -484.514)" fill="#fff"/>
  <path id="Path_13" data-name="Path 13" d="M280.33,511.09q-3.421.288-6.849.516Q276.911,511.377,280.33,511.09Zm0,0" transform="translate(-259.854 -480.472)" fill="#fff"/>
  <path id="Path_14" data-name="Path 14" d="M32.158,16.079A16.079,16.079,0,1,0,16.079,32.158c.094,0,.188,0,.283,0V19.637H12.907V15.612h3.454V12.649c0-3.436,2.1-5.306,5.162-5.306a28.437,28.437,0,0,1,3.1.158v3.591H22.508c-1.667,0-1.99.792-1.99,1.955v2.564H24.5l-.52,4.026H20.517v11.9A16.088,16.088,0,0,0,32.158,16.079Zm0,0" fill="#fff"/>
  <path id="Path_15" data-name="Path 15" d="M278.47,511.43q-6.764.436-13.58.674Q271.7,511.876,278.47,511.43Zm0,0" transform="translate(-255.126 -480.237)" fill="#fff"/>
  <path id="Path_16" data-name="Path 16" d="M267.7,511.836q-3.59.119-7.193.179Q264.1,511.955,267.7,511.836Zm0,0" transform="translate(-247.696 -479.956)" fill="#fff"/>
</svg>
