<svg id="Component_5_8" data-name="Component 5 – 8" xmlns="http://www.w3.org/2000/svg" width="43.726" height="42.297" viewBox="0 0 43.726 42.297">
  <ellipse id="Ellipse_93" data-name="Ellipse 93" cx="14.142" cy="1.78" rx="14.142" ry="1.78" transform="translate(7.628 38.737)" opacity="0.3"/>
  <g id="Group_895" data-name="Group 895">
    <path id="Path_722" data-name="Path 722" d="M71.8,78.473l-5.072,7.085v7.568l4.348,8.213,15.862,14.493,17.472-15.862,3.043-6.441.821-5.153L105.7,81.613l-2.657-3.14-4.831-1.61-7.085,1.932-4.509,4.267-1.127-2.254-4.75-3.382h-6.28Z" transform="translate(-65.409 -76.161)" fill="#fa2e7f"/>
    <g id="Group_894" data-name="Group 894">
      <path id="Path_723" data-name="Path 723" d="M108.813,88.151c-.638-7.025-5.611-12.122-11.834-12.122A11.763,11.763,0,0,0,86.9,81.836a11.336,11.336,0,0,0-9.837-5.808c-6.222,0-11.2,5.1-11.833,12.122a12.5,12.5,0,0,0,.372,4.607,19.759,19.759,0,0,0,6.054,10.1l15.234,13.824,15.5-13.823a19.761,19.761,0,0,0,6.054-10.1A12.528,12.528,0,0,0,108.813,88.151Zm-2.01,4.221a18.071,18.071,0,0,1-5.542,9.238L86.9,114.421,72.788,101.613a18.084,18.084,0,0,1-5.547-9.242,10.922,10.922,0,0,1-.35-3.953l.013-.085c.547-6.155,4.819-10.623,10.161-10.623a9.858,9.858,0,0,1,9.058,6.32l.775,1.836.775-1.836a10.159,10.159,0,0,1,9.308-6.319c5.341,0,9.615,4.468,10.172,10.7A10.909,10.909,0,0,1,106.8,92.372Z" transform="translate(-65.159 -76.028)"/>
    </g>
    <path id="Path_724" data-name="Path 724" d="M98.641,96.371H93.364l-.915-.338a4.145,4.145,0,0,1-2.456-2.455l-.345-.936v-6.35a.31.31,0,0,0-.621,0V92.7l-.324.879a4.145,4.145,0,0,1-2.456,2.455l-.915.338h-5.3a.31.31,0,1,0,0,.62h5.313l.9.332A4.144,4.144,0,0,1,88.7,99.779l.324.879v6.411a.31.31,0,1,0,.621,0v-6.354l.345-.936a4.144,4.144,0,0,1,2.456-2.456l.9-.332h5.291a.31.31,0,1,0,0-.62Z" transform="translate(-67.476 -77.611)"/>
  </g>
</svg>
