<svg id="instagram_1_" data-name="instagram (1)" xmlns="http://www.w3.org/2000/svg" width="32.158" height="32.158" viewBox="0 0 32.158 32.158">
  <g id="Group_10" data-name="Group 10">
    <g id="Group_9" data-name="Group 9">
      <path id="Path_3" data-name="Path 3" d="M22.109,0H10.049A10.05,10.05,0,0,0,0,10.049V22.109A10.05,10.05,0,0,0,10.049,32.158H22.109A10.05,10.05,0,0,0,32.158,22.109V10.049A10.05,10.05,0,0,0,22.109,0Zm7.035,22.109a7.042,7.042,0,0,1-7.035,7.035H10.049a7.042,7.042,0,0,1-7.035-7.035V10.049a7.042,7.042,0,0,1,7.035-7.035H22.109a7.042,7.042,0,0,1,7.035,7.035Z" fill="#fff"/>
    </g>
  </g>
  <g id="Group_12" data-name="Group 12" transform="translate(7.78 7.78)">
    <g id="Group_11" data-name="Group 11">
      <path id="Path_4" data-name="Path 4" d="M136.3,128a8.3,8.3,0,1,0,8.3,8.3A8.3,8.3,0,0,0,136.3,128Zm0,13.486a5.187,5.187,0,1,1,5.187-5.187A5.194,5.194,0,0,1,136.3,141.486Z" transform="translate(-128 -128)" fill="#fff"/>
    </g>
  </g>
  <g id="Group_14" data-name="Group 14" transform="translate(23.596 6.351)">
    <g id="Group_13" data-name="Group 13">
      <circle id="Ellipse_2" data-name="Ellipse 2" cx="1.106" cy="1.106" r="1.106" fill="#fff"/>
    </g>
  </g>
</svg>
