<svg id="Component_1_1" data-name="Component 1 – 1" xmlns="http://www.w3.org/2000/svg" width="43" height="43" viewBox="0 0 43 43">
  <circle id="Ellipse_1" data-name="Ellipse 1" cx="21.5" cy="21.5" r="21.5" fill="#fff"/>
  <g id="Group_16" data-name="Group 16" transform="translate(4.703 4.703)">
    <g id="Group_13" data-name="Group 13" transform="translate(14.08 14.08)">
      <g id="Group_12" data-name="Group 12">
        <path id="Path_6" data-name="Path 6" d="M212.166,209a3.166,3.166,0,1,0,3.166,3.166A3.17,3.17,0,0,0,212.166,209Z" transform="translate(-209 -209)" fill="#fa2e7f"/>
      </g>
    </g>
    <g id="Group_15" data-name="Group 15">
      <g id="Group_14" data-name="Group 14">
        <path id="Path_7" data-name="Path 7" d="M33.481,16.235H32.234A15.044,15.044,0,0,0,18.256,2.258V1.01a1.01,1.01,0,1,0-2.021,0V2.258A15.044,15.044,0,0,0,2.258,16.235H1.01a1.01,1.01,0,1,0,0,2.021H2.258A15.044,15.044,0,0,0,16.235,32.234v1.247a1.01,1.01,0,0,0,2.021,0V32.234A15.044,15.044,0,0,0,32.234,18.256h1.247a1.01,1.01,0,0,0,0-2.021ZM16.235,4.283v2.3a10.729,10.729,0,0,0-9.653,9.653h-2.3A13.023,13.023,0,0,1,16.235,4.283Zm0,25.925A13.023,13.023,0,0,1,4.283,18.256h2.3a10.729,10.729,0,0,0,9.653,9.653ZM17.246,22.7a1.011,1.011,0,0,0-1.01,1.01v2.164a8.707,8.707,0,0,1-7.621-7.621h2.164a1.01,1.01,0,0,0,0-2.021H8.615a8.707,8.707,0,0,1,7.621-7.621v2.164a1.01,1.01,0,0,0,2.021,0V8.615a8.707,8.707,0,0,1,7.621,7.621H23.713a1.01,1.01,0,0,0,0,2.021h2.164a8.707,8.707,0,0,1-7.621,7.621V23.713A1.011,1.011,0,0,0,17.246,22.7Zm1.01,7.506v-2.3a10.729,10.729,0,0,0,9.653-9.653h2.3A13.023,13.023,0,0,1,18.256,30.209Zm9.653-13.973a10.729,10.729,0,0,0-9.653-9.653v-2.3A13.023,13.023,0,0,1,30.209,16.235Z" fill="#fa2e7f"/>
      </g>
    </g>
  </g>
</svg>
