<svg xmlns="http://www.w3.org/2000/svg" width="33.785" height="36.186" viewBox="0 0 33.785 36.186">
  <g id="Group_872" data-name="Group 872" transform="translate(0)">
    <g id="Group_865" data-name="Group 865" transform="translate(0)">
      <g id="Group_864" data-name="Group 864" transform="translate(0)">
        <path id="Path_712" data-name="Path 712" d="M48.11,32.249V9.7a.67.67,0,0,0-.871-.67v.034l-3.016.945a9.049,9.049,0,0,0,.556-2.634,7.374,7.374,0,0,0-14.747,0,8.714,8.714,0,0,0,.516,2.514L25.561,8.1a.713.713,0,0,0-.174,0h-.054a.67.67,0,0,0-.235.047L14.755,12.173a.67.67,0,0,0-.429.563V35.313a.67.67,0,0,0,.912.623l10.108-3.915,11.53,4.129a.67.67,0,0,0,.429,0L47.641,32.92A.67.67,0,0,0,48.11,32.249ZM37.405,1.341a6.033,6.033,0,0,1,6.033,6.033c0,2.621-3.935,9.86-6.033,13.406-2.1-3.573-6.033-10.819-6.033-13.406A6.033,6.033,0,0,1,37.405,1.341ZM46.79,31.787l-9.023,2.822V29.494a.67.67,0,0,0-1.341,0v5.068L26.01,30.835v-4.29a.67.67,0,0,0-1.341,0v4.29l-9,3.506V23.977l3.311-1.341a.67.67,0,1,0-.5-1.24L15.667,22.53V13.2l9-3.486v2.011a.67.67,0,0,0,1.341,0V9.686l5.141,1.843a93.1,93.1,0,0,0,5.678,10.94.67.67,0,0,0,1.146,0A93.476,93.476,0,0,0,43.632,11.6l3.137-.985L46.79,21.6l-3.4.824a.694.694,0,0,0,.322,1.341l3.077-.751v8.775Z" transform="translate(-14.326)"/>
      </g>
    </g>
    <g id="Group_867" data-name="Group 867" transform="translate(19.158 3.479)">
      <g id="Group_866" data-name="Group 866" transform="translate(0)">
        <path id="Path_713" data-name="Path 713" d="M246.861,41.52a3.895,3.895,0,1,0,3.895,3.895A3.895,3.895,0,0,0,246.861,41.52Zm0,6.449a2.561,2.561,0,0,1-2.527-2.554h-.027a2.554,2.554,0,1,1,2.554,2.554Z" transform="translate(-242.966 -41.52)"/>
      </g>
    </g>
    <g id="Group_869" data-name="Group 869" transform="translate(7.361 18.784)">
      <g id="Group_868" data-name="Group 868" transform="translate(0)">
        <path id="Path_714" data-name="Path 714" d="M109.1,225.616v.02l-3.244-1.4a.671.671,0,0,0-.516,0l-2.742,1.106a.672.672,0,0,0,.5,1.247l2.48-1,2.983,1.26a.672.672,0,1,0,.536-1.233Z" transform="translate(-102.182 -224.184)"/>
      </g>
    </g>
    <g id="Group_871" data-name="Group 871" transform="translate(19.075 22.661)">
      <g id="Group_870" data-name="Group 870" transform="translate(0)">
        <path id="Path_715" data-name="Path 715" d="M248.148,271.842a.67.67,0,0,0-.757-.462l.007-.054-1.662.4-2.815-1.22a.672.672,0,1,0-.536,1.233l3.016,1.341a.671.671,0,0,0,.268.054h.161l1.877-.456A.67.67,0,0,0,248.148,271.842Z" transform="translate(-241.979 -270.453)"/>
      </g>
    </g>
  </g>
</svg>
