<svg id="Group_1052" data-name="Group 1052" xmlns="http://www.w3.org/2000/svg" width="28.776" height="20.913" viewBox="0 0 28.776 20.913">
  <g id="Group_1035" data-name="Group 1035" transform="translate(0 0)">
    <g id="Group_1034" data-name="Group 1034" transform="translate(0 0)">
      <path id="Path_770" data-name="Path 770" d="M27.808,75.638,8.333,69.486a1.33,1.33,0,0,0-1.745.906l-1.6,5.07H1.394A1.4,1.4,0,0,0,0,76.856V88.927a1.393,1.393,0,0,0,1.394,1.394H21.82a1.384,1.384,0,0,0,1.161-.629,6.505,6.505,0,0,0,.77.176,1.38,1.38,0,0,0,1.326-.974l3.637-11.511A1.346,1.346,0,0,0,27.808,75.638Zm-20.9-3.195,9.568,3.019H10.31L6.35,74.211ZM6.073,75.1l1.161.368H5.959ZM22.285,88.927h-.006a.467.467,0,0,1-.465.465H1.394a.467.467,0,0,1-.465-.465V76.856a.467.467,0,0,1,.465-.465H21.82a.467.467,0,0,1,.465.465V88.927Zm1.909-.312a.469.469,0,0,1-.583.3l-.4-.125V80.515l3.223,1.02Zm2.515-7.97-3.5-1.1V77.592l4.062,1.28Zm1.122-3.54-.278.884-4.367-1.377a1.392,1.392,0,0,0-1.365-1.144H19.56L7.188,71.56l.278-.884a.466.466,0,0,1,.583-.3l19.475,6.146A.438.438,0,0,1,27.831,77.105Z" transform="translate(0 -69.408)" fill="#5c5c5c"/>
    </g>
  </g>
  <g id="Group_1037" data-name="Group 1037" transform="translate(2.686 11.566)">
    <g id="Group_1036" data-name="Group 1036" transform="translate(0 0)">
      <path id="Path_771" data-name="Path 771" d="M50.746,274.1a.755.755,0,0,0-.277-.3,1.3,1.3,0,0,0-.441-.162,3.6,3.6,0,0,0-.6-.047H48.371a.265.265,0,0,0-.244.193l-.712,3.1a.15.15,0,0,0,.153.193h.507a.259.259,0,0,0,.243-.193l.174-.753a.26.26,0,0,1,.243-.192h.145a2.4,2.4,0,0,0,1.445-.381,1.187,1.187,0,0,0,.518-1.005A.944.944,0,0,0,50.746,274.1Zm-1.093,1.014a1.067,1.067,0,0,1-.641.168h-.124a.151.151,0,0,1-.154-.193l.152-.659a.257.257,0,0,1,.241-.192h.166a.811.811,0,0,1,.441.1.335.335,0,0,1,.146.3A.549.549,0,0,1,49.653,275.111Z" transform="translate(-47.41 -273.59)" fill="#5c5c5c"/>
    </g>
  </g>
  <g id="Group_1039" data-name="Group 1039" transform="translate(20.168 11.253)">
    <g id="Group_1038" data-name="Group 1038">
      <path id="Path_772" data-name="Path 772" d="M356.334,268.619l-.032.01-.042.006-.052-.008-.027-.026-.012-.041v-.287h.169v-.07h-.169v-.141h-.084v.141h-.057v.07h.057v.263l.039.13.115.041.048,0,.051-.01v-.074Z" transform="translate(-356.027 -268.063)" fill="#5c5c5c"/>
    </g>
  </g>
  <g id="Group_1041" data-name="Group 1041" transform="translate(20.578 11.38)">
    <g id="Group_1040" data-name="Group 1040">
      <path id="Path_773" data-name="Path 773" d="M363.952,270.348l-.121-.05-.089.018-.091.061-.053-.059-.086-.02-.082.018-.078.05v-.055h-.082v.493h.082v-.368l.069-.043.069-.017.056.01.028.028.012.047,0,.061v.282h.082v-.366l.07-.045.069-.017.054.01.03.028.01.048.006.06v.282h.083v-.32Z" transform="translate(-363.269 -270.298)" fill="#5c5c5c"/>
    </g>
  </g>
  <g id="Group_1043" data-name="Group 1043" transform="translate(5.838 12.356)">
    <g id="Group_1042" data-name="Group 1042" transform="translate(0 0)">
      <path id="Path_774" data-name="Path 774" d="M105.685,287.689a1.925,1.925,0,0,0-.906-.162,4,4,0,0,0-.613.048c-.152.023-.167.028-.26.048a.3.3,0,0,0-.223.234l-.062.255c-.035.163.059.157.1.143a2.63,2.63,0,0,1,.3-.089,2.173,2.173,0,0,1,.475-.064,1.251,1.251,0,0,1,.461.065.233.233,0,0,1,.153.23l-.009.072-.073.045c-.288.018-.5.045-.748.081a2.318,2.318,0,0,0-.643.177,1,1,0,0,0-.436.344.938.938,0,0,0-.145.53.627.627,0,0,0,.206.482.775.775,0,0,0,.534.182,1.46,1.46,0,0,0,.318-.029l.246-.085.208-.115.191-.126,0,0-.019.081v0h0a.151.151,0,0,0,.135.19l0,0h.471l.007,0a.262.262,0,0,0,.218-.19l.37-1.6.019-.13.009-.122A.535.535,0,0,0,105.685,287.689Zm-.818,1.8-.079.1-.2.1a.71.71,0,0,1-.265.057.608.608,0,0,1-.289-.055l-.1-.19a.38.38,0,0,1,.074-.247l.215-.146a1.854,1.854,0,0,1,.334-.075c.116-.014.345-.041.375-.041l.035.062C104.963,289.093,104.9,289.365,104.867,289.488Z" transform="translate(-103.056 -287.527)" fill="#5c5c5c"/>
    </g>
  </g>
  <g id="Group_1045" data-name="Group 1045" transform="translate(15.046 12.358)">
    <g id="Group_1044" data-name="Group 1044" transform="translate(0 0)">
      <path id="Path_775" data-name="Path 775" d="M268.244,287.722a1.928,1.928,0,0,0-.906-.162,3.863,3.863,0,0,0-.613.049c-.152.022-.167.027-.261.047a.3.3,0,0,0-.222.235l-.062.255c-.035.163.057.156.1.143a3,3,0,0,1,.3-.09,2.266,2.266,0,0,1,.476-.064,1.245,1.245,0,0,1,.46.065.232.232,0,0,1,.153.23l-.008.071-.072.046c-.291.017-.5.044-.748.081a2.32,2.32,0,0,0-.643.177,1,1,0,0,0-.436.345.926.926,0,0,0-.146.528.619.619,0,0,0,.208.482.776.776,0,0,0,.533.184,1.413,1.413,0,0,0,.318-.03l.245-.083.21-.115.19-.128,0,0-.017.082h0a.148.148,0,0,0,.135.19v0h.47l.008,0a.259.259,0,0,0,.216-.191l.371-1.6.02-.131.011-.123A.534.534,0,0,0,268.244,287.722Zm-.816,1.8-.082.105-.2.1a.717.717,0,0,1-.264.057.59.59,0,0,1-.288-.055l-.1-.189a.4.4,0,0,1,.072-.248.519.519,0,0,1,.217-.146,1.885,1.885,0,0,1,.334-.075c.115-.014.343-.041.373-.042l.036.062C267.524,289.127,267.458,289.4,267.428,289.521Z" transform="translate(-265.615 -287.56)" fill="#5c5c5c"/>
    </g>
  </g>
  <g id="Group_1047" data-name="Group 1047" transform="translate(11.892 11.577)">
    <g id="Group_1046" data-name="Group 1046">
      <path id="Path_776" data-name="Path 776" d="M213.274,274.294a.785.785,0,0,0-.279-.3,1.244,1.244,0,0,0-.441-.162,3.486,3.486,0,0,0-.6-.047H210.9a.264.264,0,0,0-.242.193l-.713,3.1a.15.15,0,0,0,.153.192h.508a.263.263,0,0,0,.244-.192l.172-.754a.263.263,0,0,1,.244-.192h.145a2.414,2.414,0,0,0,1.448-.381,1.2,1.2,0,0,0,.515-1.007A.989.989,0,0,0,213.274,274.294Zm-1.093,1.015a1.08,1.08,0,0,1-.64.166h-.126a.152.152,0,0,1-.155-.193l.154-.658a.258.258,0,0,1,.242-.192h.164a.82.82,0,0,1,.441.1.338.338,0,0,1,.147.3A.557.557,0,0,1,212.181,275.309Z" transform="translate(-209.938 -273.786)" fill="#5c5c5c"/>
    </g>
  </g>
  <g id="Group_1049" data-name="Group 1049" transform="translate(18.045 11.605)">
    <g id="Group_1048" data-name="Group 1048" transform="translate(0 0)">
      <path id="Path_777" data-name="Path 777" d="M320.079,274.465a.148.148,0,0,0-.152-.191h-.454a.257.257,0,0,0-.218.154l-.025.039-.023.1-.635,2.885-.021.089v0a.144.144,0,0,0,.127.18l.008.011h.471a.257.257,0,0,0,.219-.157l.024-.037.679-3.076Z" transform="translate(-318.548 -274.275)" fill="#5c5c5c"/>
    </g>
  </g>
  <g id="Group_1051" data-name="Group 1051" transform="translate(8.923 12.394)">
    <g id="Group_1050" data-name="Group 1050" transform="translate(0 0)">
      <path id="Path_778" data-name="Path 778" d="M160.516,288.21c-.12,0-.608,0-.608,0a.44.44,0,0,0-.319.193s-.726,1.246-.8,1.371h-.084l-.226-1.361a.279.279,0,0,0-.276-.2h-.454a.15.15,0,0,0-.152.194s.345,1.963.414,2.424c.032.255,0,.3,0,.3l-.449.782c-.066.106-.031.193.078.193h.525a.424.424,0,0,0,.318-.193l2.02-3.416S160.7,288.206,160.516,288.21Z" transform="translate(-157.527 -288.21)" fill="#5c5c5c"/>
    </g>
  </g>
</svg>
