<svg id="Group_10" data-name="Group 10" xmlns="http://www.w3.org/2000/svg" width="41.866" height="34.172" viewBox="0 0 41.866 34.172">
  <g id="Group_3" data-name="Group 3">
    <g id="Group_2" data-name="Group 2">
      <path id="Path_1" data-name="Path 1" d="M39.024,53.91h-3.83l-.88-3.977a3.658,3.658,0,0,0-3.593-2.885h-13.3a3.658,3.658,0,0,0-3.593,2.885l-.88,3.977H12.04v-1.7a1.736,1.736,0,0,0-1.734-1.734H4.7a1.736,1.736,0,0,0-1.734,1.734v1.7H2.842A2.845,2.845,0,0,0,0,56.752V76a2.845,2.845,0,0,0,2.842,2.842H16.023a14.814,14.814,0,0,0,16.1,0h6.9A2.845,2.845,0,0,0,41.866,76V56.752A2.845,2.845,0,0,0,39.024,53.91Zm-23.6-3.623a2.032,2.032,0,0,1,2-1.6h13.3a2.032,2.032,0,0,1,2,1.6l.8,3.623h-1.4a14.814,14.814,0,0,0-16.1,0h-1.4ZM4.6,52.213a.1.1,0,0,1,.1-.1h5.607a.1.1,0,0,1,.1.1v1.7H4.6ZM6.566,77.207V68.326a.818.818,0,1,0-1.635,0v8.882H2.842A1.208,1.208,0,0,1,1.635,76V56.752a1.208,1.208,0,0,1,1.207-1.207H13.933a14.819,14.819,0,0,0,0,21.662Zm25.054,0a13.2,13.2,0,1,1,5.658-10.831A13.18,13.18,0,0,1,31.621,77.207ZM40.23,76a1.208,1.208,0,0,1-1.207,1.207H34.209a14.819,14.819,0,0,0,0-21.662h4.815a1.208,1.208,0,0,1,1.207,1.207V76Z" transform="translate(0 -47.048)" fill="#fff"/>
    </g>
  </g>
  <g id="Group_5" data-name="Group 5" transform="translate(13.336 8.593)">
    <g id="Group_4" data-name="Group 4">
      <path id="Path_2" data-name="Path 2" d="M173.823,152.134a10.735,10.735,0,1,0,2.552,21.166.818.818,0,0,0-.387-1.589,9.1,9.1,0,1,1,5.374-3.742.818.818,0,0,0,1.354.918,10.737,10.737,0,0,0-8.892-16.753Z" transform="translate(-163.088 -152.134)" fill="#fff"/>
    </g>
  </g>
  <g id="Group_7" data-name="Group 7" transform="translate(2.704 11.323)">
    <g id="Group_6" data-name="Group 6">
      <path id="Path_3" data-name="Path 3" d="M36.115,185.527a3.045,3.045,0,1,0,3.045,3.045A3.048,3.048,0,0,0,36.115,185.527Zm0,4.454a1.409,1.409,0,1,1,1.409-1.409A1.411,1.411,0,0,1,36.115,189.981Z" transform="translate(-33.07 -185.527)" fill="#fff"/>
    </g>
  </g>
  <g id="Group_9" data-name="Group 9" transform="translate(29.051 26.557)">
    <g id="Group_8" data-name="Group 8">
      <path id="Path_4" data-name="Path 4" d="M356.9,372.483a.872.872,0,0,0-.047-.153.831.831,0,0,0-.075-.141.778.778,0,0,0-.1-.124.806.806,0,0,0-.266-.177.826.826,0,0,0-.153-.047.81.81,0,0,0-.32,0,.823.823,0,0,0-.153.047.865.865,0,0,0-.141.075.929.929,0,0,0-.124.1.783.783,0,0,0-.1.124.829.829,0,0,0-.075.141.864.864,0,0,0-.047.153.818.818,0,0,0-.016.16.8.8,0,0,0,.016.159.824.824,0,0,0,.047.153.8.8,0,0,0,.075.141.783.783,0,0,0,.1.124.859.859,0,0,0,.124.1.871.871,0,0,0,.141.075.823.823,0,0,0,.153.047.789.789,0,0,0,.32,0,.822.822,0,0,0,.153-.047.863.863,0,0,0,.141-.075.82.82,0,0,0,.348-.84Z" transform="translate(-355.282 -371.825)" fill="#fff"/>
    </g>
  </g>
</svg>
