<svg xmlns="http://www.w3.org/2000/svg" width="20.68" height="14.1" viewBox="0 0 20.68 14.1">
  <g id="Group_1058" data-name="Group 1058" transform="translate(0 0)">
    <path id="Path_784" data-name="Path 784" d="M173.487,170.667a2.82,2.82,0,1,0,2.82,2.82A2.822,2.822,0,0,0,173.487,170.667Z" transform="translate(-163.147 -166.437)" fill="#fff"/>
    <path id="Path_785" data-name="Path 785" d="M10.34,74.667A11.117,11.117,0,0,0,0,81.717a11.108,11.108,0,0,0,20.68,0A11.112,11.112,0,0,0,10.34,74.667Zm0,11.75a4.7,4.7,0,1,1,4.7-4.7A4.7,4.7,0,0,1,10.34,86.417Z" transform="translate(0 -74.667)" fill="#fff"/>
  </g>
</svg>
